<svg id="Layer_1" data-name="Layer 1" xmlns="http://www.w3.org/2000/svg" viewBox="0 0 112.28 137.16"><defs><style>.cls-1{fill:#ffe0bd;}.cls-1,.cls-2,.cls-3,.cls-4,.cls-5{stroke:#231f20;stroke-miterlimit:10;stroke-width:0.5px;}.cls-2{fill:#f1f1f2;}.cls-3{fill:#1b75bb;}.cls-4{fill:#e7ccad;}.cls-5{fill:#fff;}.cls-6{fill:#231f20;}</style></defs><title>Soprano medium</title><circle class="cls-1" cx="56.14" cy="81.02" r="55.89"/><path class="cls-2" d="M138.52,90.82V69.7s-17.15-3.77,0-10.88c0,0,22.23-9.62,42.95,0,16.84,7.82,0,10.88,0,10.88V90.82" transform="translate(-103.78 -54.3)"/><rect class="cls-1" x="29.31" y="58.02" width="19.49" height="19.49"/><circle class="cls-3" cx="39.05" cy="67.88" r="5.3"/><rect class="cls-1" x="62.73" y="58.02" width="19.49" height="19.49"/><circle class="cls-3" cx="72.47" cy="67.88" r="5.3"/><path class="cls-1" d="M157.45,140.28c-5.93,4.24-5.93,7.41,0,7.2" transform="translate(-103.78 -54.3)"/><path class="cls-4" d="M145.18,160.47h27.9s3,15.27-13.49,15.53S145.18,160.47,145.18,160.47Z" transform="translate(-103.78 -54.3)"/><line class="cls-5" x1="48.79" y1="60.14" x2="62.73" y2="60.14"/><line class="cls-5" x1="48.79" y1="64.17" x2="62.73" y2="64.17"/><line class="cls-5" x1="82.22" y1="60.14" x2="104.72" y2="53.36"/><line class="cls-5" x1="82.22" y1="62.59" x2="106.51" y2="56.75"/><line class="cls-5" x1="29.31" y1="60.14" x2="7.56" y2="53.36"/><line class="cls-5" x1="29.31" y1="62.59" x2="5.78" y2="56.75"/><path class="cls-6" d="M176.3,124.12a1.88,1.88,0,0,0,0-3.75,1.88,1.88,0,0,0,0,3.75Z" transform="translate(-103.78 -54.3)"/><path class="cls-6" d="M142.83,124.07a1.88,1.88,0,0,0,0-3.75,1.88,1.88,0,0,0,0,3.75Z" transform="translate(-103.78 -54.3)"/></svg>