<svg id="Layer_1" data-name="Layer 1" xmlns="http://www.w3.org/2000/svg" viewBox="0 0 79.28 96.7"><defs><style>.cls-1{fill:#ffe0bd;}.cls-1,.cls-2,.cls-3,.cls-4{stroke:#231f20;stroke-miterlimit:10;}.cls-2{fill:#f1f1f2;}.cls-3{fill:#e7ccad;}.cls-4{fill:#fff;}.cls-5{fill:#231f20;}</style></defs><title>Soprano small</title><circle class="cls-1" cx="39.64" cy="57.06" r="39.14"/><path class="cls-2" d="M144.31,98.8V84s-12-2.64,0-7.62c0,0,15.57-6.73,30.08,0,11.79,5.48,0,7.62,0,7.62V98.8" transform="translate(-119.66 -72.9)"/><rect class="cls-1" x="20.85" y="40.96" width="13.65" height="13.65"/><rect class="cls-1" x="44.25" y="40.96" width="13.65" height="13.65"/><path class="cls-1" d="M157.57,133.44c-4.16,3-4.16,5.19,0,5" transform="translate(-119.66 -72.9)"/><path class="cls-3" d="M149,147.58h19.54s2.1,10.69-9.44,10.87S149,147.58,149,147.58Z" transform="translate(-119.66 -72.9)"/><line class="cls-4" x1="34.49" y1="45.26" x2="44.25" y2="45.26"/><line class="cls-4" x1="57.9" y1="42.44" x2="73.66" y2="37.69"/><line class="cls-4" x1="20.85" y1="42.44" x2="5.62" y2="37.69"/><path class="cls-5" d="M170.77,123.3c3.21,0,3.22-5,0-5s-3.23,5,0,5Z" transform="translate(-119.66 -72.9)"/><path class="cls-5" d="M147.33,123.27c3.22,0,3.22-5,0-5s-3.22,5,0,5Z" transform="translate(-119.66 -72.9)"/></svg>