<svg id="Layer_1" data-name="Layer 1" xmlns="http://www.w3.org/2000/svg" viewBox="0 0 201 245.5"><defs><style>.cls-1{fill:#ffe0bd;}.cls-1,.cls-2,.cls-3,.cls-4,.cls-5,.cls-7{stroke:#231f20;stroke-miterlimit:10;}.cls-2{fill:#f1f1f2;}.cls-3{fill:#1b75bb;}.cls-4{fill:#e7ccad;}.cls-5{fill:#fff;}.cls-6{fill:#231f20;}.cls-7{fill:none;}</style></defs><title>Soprano large</title><circle class="cls-1" cx="100.5" cy="145" r="100"/><path class="cls-2" d="M326,204.64V166.85s-30.68-6.73,0-19.45c0,0,39.78-17.21,76.85,0,30.13,14,0,19.45,0,19.45v37.79" transform="translate(-263.75 -139.25)"/><rect class="cls-1" x="52.49" y="103.86" width="34.86" height="34.86"/><circle class="cls-3" cx="69.92" cy="121.51" r="9.47"/><rect class="cls-1" x="112.28" y="103.86" width="34.86" height="34.86"/><circle class="cls-3" cx="129.72" cy="121.51" r="9.47"/><path class="cls-1" d="M359.82,293.13c-10.61,7.58-10.61,13.27,0,12.89" transform="translate(-263.75 -139.25)"/><path class="cls-4" d="M337.86,329.26h49.92s5.37,27.32-24.12,27.78S337.86,329.26,337.86,329.26Z" transform="translate(-263.75 -139.25)"/><line class="cls-5" x1="87.35" y1="107.65" x2="112.28" y2="107.65"/><line class="cls-5" x1="87.35" y1="114.85" x2="112.28" y2="114.85"/><line class="cls-5" x1="147.15" y1="107.65" x2="187.41" y2="95.52"/><line class="cls-5" x1="147.15" y1="112.03" x2="190.61" y2="101.58"/><line class="cls-5" x1="52.49" y1="107.65" x2="13.58" y2="95.52"/><line class="cls-5" x1="52.49" y1="112.03" x2="10.39" y2="101.58"/><path class="cls-6" d="M393.54,263.36c3.22,0,3.23-5,0-5s-3.22,5,0,5Z" transform="translate(-263.75 -139.25)"/><path class="cls-6" d="M333.67,263.28c3.22,0,3.22-5,0-5s-3.22,5,0,5Z" transform="translate(-263.75 -139.25)"/><line class="cls-7" x1="82.42" y1="38.69" x2="82.42" y2="58.01"/><line class="cls-7" x1="118.42" y1="38.69" x2="118.42" y2="58.01"/><line class="cls-7" x1="100.5" y1="39.13" x2="100.5" y2="58.45"/></svg>